<svg width="15" height="15" viewBox="0 0 15 15" fill="none" xmlns="http://www.w3.org/2000/svg">
<path d="M12.5 10.7188L11.25 9.46875V6.25H8.03125L6.78125 5H9.375V3.75C9.375 3.22917 9.19531 2.78646 8.83594 2.42188C8.47656 2.05729 8.03646 1.875 7.51562 1.875C6.99479 1.875 6.55729 2.05469 6.20312 2.41406C5.84896 2.77344 5.67188 3.21875 5.67188 3.75V3.89063L4.53125 2.75C4.76042 2.11458 5.15104 1.60156 5.70312 1.21094C6.25521 0.820313 6.85938 0.625 7.51562 0.625C8.38021 0.625 9.11458 0.929688 9.71875 1.53906C10.3229 2.14844 10.625 2.88542 10.625 3.75V5H11.25C11.5938 5 11.888 5.1224 12.1328 5.36719C12.3776 5.61198 12.5 5.90625 12.5 6.25V10.7188ZM12.8125 14.5625L11.8438 13.5938C11.7292 13.6458 11.625 13.6849 11.5312 13.7109C11.4375 13.737 11.3438 13.75 11.25 13.75H3.75C3.40625 13.75 3.11198 13.6276 2.86719 13.3828C2.6224 13.138 2.5 12.8438 2.5 12.5V6.25C2.5 5.98958 2.57552 5.75 2.72656 5.53125C2.8776 5.3125 3.07292 5.15625 3.3125 5.0625L0.4375 2.1875L1.3125 1.3125L13.6875 13.6875L12.8125 14.5625ZM10.7188 12.5L8.42188 10.1719C8.30729 10.2865 8.17448 10.375 8.02344 10.4375C7.8724 10.5 7.70833 10.5313 7.53125 10.5313C7.1875 10.5313 6.89323 10.4089 6.64844 10.1641C6.40365 9.91927 6.28125 9.625 6.28125 9.28125C6.28125 9.10417 6.3125 8.94011 6.375 8.78906C6.4375 8.63802 6.52604 8.50521 6.64062 8.39063L4.46875 6.25H3.75V12.5H10.7188Z" fill="black"/>
</svg>
