<svg width="150" height="102" viewBox="0 0 150 102" fill="none" xmlns="http://www.w3.org/2000/svg">
<g clip-path="url(#clip0_246_78)">
<mask id="mask0_246_78" style="mask-type:luminance" maskUnits="userSpaceOnUse" x="0" y="0" width="66" height="55">
<path d="M0 0H65.6278V54.7315H0V0Z" fill="white"/>
</mask>
<g mask="url(#mask0_246_78)">
<path d="M65.6302 18.9561V30.3131L32.8139 11.376L13.8506 22.3213L9.83791 24.6346V29.863L18.3928 34.8024L42.7096 48.8314L32.8139 54.5387L0 35.5029V18.9561L32.8139 0.019043L65.6302 18.9561Z" fill="#00FCF9"/>
</g>
<mask id="mask1_246_78" style="mask-type:luminance" maskUnits="userSpaceOnUse" x="0" y="20" width="66" height="56">
<path d="M0 20.8389H65.6278V75.7966H0V20.8389Z" fill="white"/>
</mask>
<g mask="url(#mask1_246_78)">
<path d="M32.8139 21.248L65.6302 40.1924V56.8307L32.8139 75.7725L0 56.8307V45.3966L32.8139 64.4156L51.2645 53.7687L55.7899 51.157V46.5232L47.235 41.5885L22.4055 27.2563L32.8139 21.248Z" fill="#00FCF9"/>
</g>
<mask id="mask2_246_78" style="mask-type:luminance" maskUnits="userSpaceOnUse" x="72" y="1" width="78" height="74">
<path d="M72.356 1.36279H150V74.3863H72.356V1.36279Z" fill="white"/>
</mask>
<g mask="url(#mask2_246_78)">
<path d="M99.1955 28.5082L72.3657 55.4636V1.55295L81.4671 10.6953V32.0973L92.1162 21.3975L99.1955 28.5082ZM72.3657 74.3862V60.5427L104.38 28.3807L94.7736 18.7304L111.079 2.34732L127.578 18.9205L118.349 28.1905L149.986 59.9722V74.1961L111.27 35.3036L72.3657 74.3862ZM106.277 18.7304L111.335 23.8095L116.199 18.9205L111.144 13.8414L106.277 18.7304ZM149.986 55.401V1.36279L140.629 10.7603V32.0323L130.043 21.3951L123.089 28.3807L149.986 55.401Z" fill="#00FCF9"/>
</g>
<path d="M20.8901 89.0766C18.9067 88.5062 17.4624 87.8057 16.5573 86.9776C15.6571 86.1447 15.2093 85.1169 15.2093 83.8964C15.2093 82.5171 15.7582 81.3786 16.8558 80.4783C17.9583 79.5732 19.3929 79.1206 21.1597 79.1206C22.3657 79.1206 23.4417 79.3566 24.3853 79.8235C25.3289 80.2857 26.0558 80.9284 26.5709 81.7493C27.0909 82.5653 27.3509 83.4583 27.3509 84.426H25.0304C25.0304 83.3669 24.6934 82.5364 24.0194 81.9322C23.3454 81.3232 22.3922 81.0175 21.1597 81.0175C20.0236 81.0175 19.1329 81.2726 18.4926 81.7782C17.8572 82.2788 17.5394 82.9721 17.5394 83.8579C17.5394 84.5777 17.8403 85.1843 18.4445 85.6777C19.0535 86.1664 20.0862 86.6165 21.5449 87.0258C23.0012 87.4374 24.1398 87.8899 24.963 88.3834C25.7838 88.8793 26.3928 89.457 26.7924 90.1165C27.1896 90.7713 27.3894 91.5416 27.3894 92.4274C27.3894 93.8524 26.8333 94.9934 25.7236 95.8456C24.6188 96.7001 23.1384 97.1262 21.2849 97.1262C20.0765 97.1262 18.95 96.8951 17.9053 96.4329C16.8654 95.9707 16.0615 95.3401 15.4982 94.5361C14.9325 93.7345 14.6509 92.8222 14.6509 91.8015H16.9713C16.9713 92.8607 17.3613 93.6984 18.146 94.3146C18.9283 94.9309 19.9754 95.239 21.2849 95.239C22.5029 95.239 23.4369 94.9934 24.0868 94.4976C24.7343 93.9969 25.0593 93.3181 25.0593 92.4563C25.0593 91.5969 24.756 90.9326 24.1542 90.4632C23.5572 89.9962 22.4692 89.534 20.8901 89.0766Z" fill="#00FCF9"/>
<path d="M40.9995 90.5209C40.9995 92.4996 40.5422 94.0931 39.6323 95.3063C38.7272 96.5195 37.4995 97.1261 35.9542 97.1261C34.3751 97.1261 33.1282 96.6255 32.2183 95.6241V101.892H29.9941V83.8579H32.0258L32.1413 85.3022C33.0464 84.1805 34.3029 83.6172 35.9157 83.6172C37.4803 83.6172 38.72 84.2093 39.6323 85.3889C40.5422 86.5708 40.9995 88.21 40.9995 90.3091V90.5209ZM38.7657 90.2609C38.7657 88.7974 38.4504 87.642 37.8221 86.7946C37.1987 85.9425 36.3417 85.514 35.2513 85.514C33.9033 85.514 32.8923 86.111 32.2183 87.305V93.525C32.8851 94.7142 33.9057 95.3063 35.2802 95.3063C36.3441 95.3063 37.1914 94.8827 37.8221 94.0354C38.4504 93.188 38.7657 91.9315 38.7657 90.2609Z" fill="#00FCF9"/>
<path d="M49.2241 97.1262C47.4572 97.1262 46.0202 96.5485 44.9105 95.393C43.8056 94.2328 43.2544 92.6778 43.2544 90.7328V90.3284C43.2544 89.0333 43.4999 87.8779 43.9958 86.8621C44.4892 85.8487 45.1801 85.0567 46.0659 84.4838C46.9517 83.9061 47.9146 83.6172 48.9545 83.6172C50.6419 83.6172 51.9537 84.1757 52.8925 85.2926C53.8361 86.4095 54.3079 88.0079 54.3079 90.0877V91.012H45.4882C45.5195 92.2974 45.8926 93.3325 46.6051 94.1221C47.3224 94.9116 48.2371 95.3064 49.3492 95.3064C50.1315 95.3064 50.7959 95.1475 51.3423 94.8249C51.8863 94.5048 52.3654 94.0811 52.777 93.554L54.1346 94.6131C53.0418 96.2885 51.4049 97.1262 49.2241 97.1262ZM48.9545 85.4467C48.0542 85.4467 47.3008 85.774 46.6918 86.4288C46.0804 87.0835 45.7024 88.0031 45.5556 89.1826H52.0837V89.0093C52.0187 87.8803 51.713 87.0041 51.169 86.3806C50.6226 85.7596 49.8836 85.4467 48.9545 85.4467Z" fill="#00FCF9"/>
<path d="M58.9885 83.8579L59.0559 85.4948C60.0501 84.2431 61.3499 83.6172 62.9555 83.6172C65.7092 83.6172 67.0981 85.1723 67.1246 88.2775V96.8855H64.9004V88.2679C64.886 87.3315 64.6693 86.6382 64.2457 86.1881C63.8268 85.7403 63.1721 85.5141 62.2815 85.5141C61.5617 85.5141 60.9287 85.7066 60.3847 86.0918C59.8382 86.4769 59.4122 86.9824 59.1041 87.6035V96.8855H56.8799V83.8579H58.9885Z" fill="#00FCF9"/>
<path d="M69.9404 90.2614C69.9404 88.2659 70.4122 86.6603 71.3558 85.4471C72.3042 84.2291 73.5463 83.6176 75.082 83.6176C76.6033 83.6176 77.8093 84.1424 78.7024 85.1871V78.3989H80.9265V96.8859H78.8853L78.7698 95.4897C77.8839 96.5826 76.6443 97.1266 75.0532 97.1266C73.5439 97.1266 72.3139 96.5104 71.3654 95.2779C70.4146 94.0406 69.9404 92.4254 69.9404 90.4347V90.2614ZM72.1646 90.5214C72.1646 91.9994 72.4679 93.1548 73.0793 93.9877C73.6883 94.823 74.5332 95.2394 75.6116 95.2394C77.0222 95.2394 78.0524 94.6039 78.7024 93.3329V87.3535C78.0332 86.1283 77.0101 85.5145 75.6309 85.5145C74.538 85.5145 73.6883 85.9357 73.0793 86.7758C72.4679 87.6183 72.1646 88.8652 72.1646 90.5214Z" fill="#00FCF9"/>
<path d="M88.5091 91.3586L88.8461 93.6695L89.3372 91.5897L92.8034 79.3613H94.758L98.1376 91.5897L98.6191 93.708L98.9946 91.349L101.71 79.3613H104.03L99.7841 96.8854H97.6755L94.0648 84.1179L93.7952 82.7795L93.516 84.1179L89.7705 96.8854H87.6618L83.4253 79.3613H85.7361L88.5091 91.3586Z" fill="#00FCF9"/>
<path d="M108.662 96.8855H106.438V83.8579H108.662V96.8855ZM106.255 80.4109C106.255 80.045 106.363 79.7417 106.582 79.4962C106.806 79.2458 107.133 79.1206 107.564 79.1206C108 79.1206 108.33 79.2458 108.556 79.4962C108.78 79.7417 108.893 80.045 108.893 80.4109C108.893 80.772 108.78 81.0729 108.556 81.316C108.33 81.5543 108 81.6722 107.564 81.6722C107.133 81.6722 106.806 81.5543 106.582 81.316C106.363 81.0729 106.255 80.772 106.255 80.4109Z" fill="#00FCF9"/>
<path d="M119.813 93.4288C119.813 92.827 119.585 92.36 119.13 92.0326C118.672 91.7005 117.881 91.414 116.752 91.1757C115.627 90.9326 114.734 90.6437 114.075 90.3091C113.413 89.9697 112.922 89.5677 112.602 89.1055C112.286 88.6386 112.13 88.0825 112.13 87.4398C112.13 86.3686 112.578 85.4635 113.478 84.7245C114.383 83.9879 115.538 83.6172 116.944 83.6172C118.42 83.6172 119.616 84 120.536 84.763C121.453 85.5285 121.912 86.5034 121.912 87.6901H119.679C119.679 87.0811 119.419 86.554 118.899 86.111C118.384 85.6681 117.734 85.4467 116.944 85.4467C116.135 85.4467 115.5 85.6248 115.038 85.9762C114.58 86.3301 114.354 86.7923 114.354 87.3628C114.354 87.902 114.566 88.3112 114.99 88.5856C115.418 88.8552 116.188 89.1152 117.3 89.3655C118.41 89.611 119.308 89.9047 119.996 90.2514C120.69 90.598 121.202 91.0168 121.537 91.5031C121.869 91.9845 122.038 92.5767 122.038 93.2747C122.038 94.4374 121.571 95.3714 120.642 96.0767C119.71 96.7772 118.504 97.1262 117.021 97.1262C115.974 97.1262 115.05 96.9432 114.248 96.5774C113.444 96.2067 112.816 95.6891 112.361 95.0272C111.911 94.3676 111.687 93.6503 111.687 92.88H113.911C113.95 93.6262 114.248 94.2159 114.807 94.6516C115.365 95.0897 116.102 95.3064 117.021 95.3064C117.861 95.3064 118.535 95.1379 119.043 94.7961C119.556 94.4567 119.813 94.0017 119.813 93.4288Z" fill="#00FCF9"/>
<path d="M130.336 97.1262C128.569 97.1262 127.132 96.5485 126.022 95.393C124.917 94.2328 124.366 92.6778 124.366 90.7328V90.3284C124.366 89.0333 124.612 87.8779 125.108 86.8621C125.601 85.8487 126.292 85.0567 127.178 84.4838C128.064 83.9061 129.026 83.6172 130.066 83.6172C131.754 83.6172 133.066 84.1757 134.004 85.2926C134.948 86.4095 135.42 88.0079 135.42 90.0877V91.012H126.6C126.631 92.2974 127.004 93.3325 127.717 94.1221C128.434 94.9116 129.349 95.3064 130.461 95.3064C131.243 95.3064 131.908 95.1475 132.454 94.8249C132.998 94.5048 133.477 94.0811 133.889 93.554L135.246 94.6131C134.154 96.2885 132.517 97.1262 130.336 97.1262ZM130.066 85.4467C129.166 85.4467 128.413 85.774 127.804 86.4288C127.192 87.0835 126.814 88.0031 126.667 89.1826H133.196V89.0093C133.131 87.8803 132.825 87.0041 132.281 86.3806C131.734 85.7596 130.995 85.4467 130.066 85.4467Z" fill="#00FCF9"/>
</g>
<defs>
<clipPath id="clip0_246_78">
<rect width="150" height="102" fill="white"/>
</clipPath>
</defs>
</svg>
