<svg width="150" height="102" viewBox="0 0 150 102" fill="none" xmlns="http://www.w3.org/2000/svg">
<mask id="mask0_221_23" style="mask-type:luminance" maskUnits="userSpaceOnUse" x="0" y="0" width="66" height="55">
<path d="M0 0H65.6278V54.7315H0V0Z" fill="white"/>
</mask>
<g mask="url(#mask0_221_23)">
<path d="M65.6302 18.9561V30.3131L32.8139 11.376L13.8506 22.3213L9.83791 24.6346V29.863L18.3928 34.8024L42.7096 48.8314L32.8139 54.5387L0 35.5029V18.9561L32.8139 0.019043L65.6302 18.9561Z" fill="#1B2033"/>
</g>
<mask id="mask1_221_23" style="mask-type:luminance" maskUnits="userSpaceOnUse" x="0" y="20" width="66" height="56">
<path d="M0 20.8389H65.6278V75.7966H0V20.8389Z" fill="white"/>
</mask>
<g mask="url(#mask1_221_23)">
<path d="M32.8139 21.248L65.6302 40.1924V56.8306L32.8139 75.7725L0 56.8306V45.3966L32.8139 64.4156L51.2645 53.7687L55.7899 51.157V46.5232L47.235 41.5885L22.4055 27.2563L32.8139 21.248Z" fill="#1B2033"/>
</g>
<mask id="mask2_221_23" style="mask-type:luminance" maskUnits="userSpaceOnUse" x="72" y="1" width="78" height="74">
<path d="M72.356 1.36279H150V74.3863H72.356V1.36279Z" fill="white"/>
</mask>
<g mask="url(#mask2_221_23)">
<path d="M99.1955 28.508L72.3657 55.4634V1.55271L81.4671 10.6951V32.0971L92.1162 21.3973L99.1955 28.508ZM72.3657 74.386V60.5425L104.38 28.3805L94.7736 18.7302L111.079 2.34708L127.578 18.9203L118.349 28.1903L149.986 59.972V74.1959L111.27 35.3034L72.3657 74.386ZM106.277 18.7302L111.335 23.8093L116.199 18.9203L111.144 13.8412L106.277 18.7302ZM149.986 55.4008V1.36255L140.629 10.7601V32.0321L130.043 21.3949L123.089 28.3805L149.986 55.4008Z" fill="#1B2033"/>
</g>
<path d="M20.8901 89.0768C18.9067 88.5064 17.4624 87.8059 16.5573 86.9778C15.6571 86.1449 15.2093 85.1171 15.2093 83.8966C15.2093 82.5173 15.7582 81.3788 16.8558 80.4785C17.9583 79.5734 19.3929 79.1208 21.1597 79.1208C22.3657 79.1208 23.4417 79.3568 24.3853 79.8237C25.3289 80.2859 26.0558 80.9286 26.5709 81.7495C27.0909 82.5655 27.3509 83.4585 27.3509 84.4262H25.0304C25.0304 83.3671 24.6934 82.5366 24.0194 81.9324C23.3454 81.3234 22.3922 81.0177 21.1597 81.0177C20.0236 81.0177 19.1329 81.2728 18.4926 81.7784C17.8572 82.279 17.5394 82.9723 17.5394 83.8581C17.5394 84.5779 17.8403 85.1845 18.4445 85.6779C19.0535 86.1666 20.0862 86.6167 21.5449 87.026C23.0012 87.4376 24.1398 87.8901 24.963 88.3836C25.7838 88.8795 26.3928 89.4572 26.7924 90.1167C27.1896 90.7715 27.3894 91.5418 27.3894 92.4276C27.3894 93.8526 26.8333 94.9936 25.7236 95.8458C24.6188 96.7003 23.1384 97.1264 21.2849 97.1264C20.0765 97.1264 18.95 96.8953 17.9053 96.4331C16.8654 95.9709 16.0615 95.3403 15.4982 94.5363C14.9325 93.7347 14.6509 92.8224 14.6509 91.8017H16.9713C16.9713 92.8609 17.3613 93.6986 18.146 94.3148C18.9283 94.9311 19.9754 95.2392 21.2849 95.2392C22.5029 95.2392 23.4369 94.9936 24.0868 94.4978C24.7343 93.9971 25.0593 93.3183 25.0593 92.4565C25.0593 91.5971 24.756 90.9328 24.1542 90.4634C23.5572 89.9964 22.4692 89.5342 20.8901 89.0768Z" fill="#1B2033"/>
<path d="M40.9995 90.5209C40.9995 92.4996 40.5422 94.0931 39.6323 95.3063C38.7272 96.5195 37.4995 97.1261 35.9542 97.1261C34.3751 97.1261 33.1282 96.6255 32.2183 95.6241V101.892H29.9941V83.8579H32.0258L32.1413 85.3022C33.0464 84.1805 34.3029 83.6172 35.9157 83.6172C37.4803 83.6172 38.72 84.2093 39.6323 85.3889C40.5422 86.5708 40.9995 88.21 40.9995 90.3091V90.5209ZM38.7657 90.2609C38.7657 88.7974 38.4504 87.642 37.8221 86.7946C37.1987 85.9425 36.3417 85.514 35.2513 85.514C33.9033 85.514 32.8923 86.111 32.2183 87.305V93.525C32.8851 94.7142 33.9057 95.3063 35.2802 95.3063C36.3441 95.3063 37.1914 94.8827 37.8221 94.0354C38.4504 93.188 38.7657 91.9315 38.7657 90.2609Z" fill="#1B2033"/>
<path d="M49.2241 97.1264C47.4572 97.1264 46.0202 96.5487 44.9105 95.3932C43.8056 94.233 43.2544 92.678 43.2544 90.733V90.3286C43.2544 89.0335 43.4999 87.8781 43.9958 86.8623C44.4892 85.8489 45.1801 85.0569 46.0659 84.484C46.9517 83.9063 47.9146 83.6174 48.9545 83.6174C50.6419 83.6174 51.9537 84.1759 52.8925 85.2928C53.8361 86.4097 54.3079 88.0081 54.3079 90.0879V91.0122H45.4882C45.5195 92.2976 45.8926 93.3327 46.6051 94.1223C47.3224 94.9118 48.2371 95.3066 49.3492 95.3066C50.1315 95.3066 50.7959 95.1477 51.3423 94.8251C51.8863 94.505 52.3654 94.0813 52.777 93.5542L54.1346 94.6133C53.0418 96.2887 51.4049 97.1264 49.2241 97.1264ZM48.9545 85.4469C48.0542 85.4469 47.3008 85.7742 46.6918 86.429C46.0804 87.0837 45.7024 88.0033 45.5556 89.1828H52.0837V89.0095C52.0187 87.8805 51.713 87.0043 51.169 86.3808C50.6226 85.7598 49.8836 85.4469 48.9545 85.4469Z" fill="#1B2033"/>
<path d="M58.9885 83.8581L59.0559 85.495C60.0501 84.2433 61.3499 83.6174 62.9555 83.6174C65.7092 83.6174 67.0981 85.1725 67.1246 88.2777V96.8857H64.9004V88.2681C64.886 87.3317 64.6693 86.6384 64.2457 86.1883C63.8268 85.7405 63.1721 85.5143 62.2815 85.5143C61.5617 85.5143 60.9287 85.7068 60.3847 86.092C59.8382 86.4771 59.4122 86.9826 59.1041 87.6037V96.8857H56.8799V83.8581H58.9885Z" fill="#1B2033"/>
<path d="M69.9404 90.2614C69.9404 88.2659 70.4122 86.6603 71.3558 85.4471C72.3042 84.2291 73.5463 83.6176 75.082 83.6176C76.6033 83.6176 77.8093 84.1424 78.7024 85.1871V78.3989H80.9265V96.8859H78.8853L78.7698 95.4897C77.8839 96.5826 76.6443 97.1266 75.0532 97.1266C73.5439 97.1266 72.3139 96.5104 71.3654 95.2779C70.4146 94.0406 69.9404 92.4254 69.9404 90.4347V90.2614ZM72.1646 90.5214C72.1646 91.9994 72.4679 93.1548 73.0793 93.9877C73.6883 94.823 74.5332 95.2394 75.6116 95.2394C77.0222 95.2394 78.0524 94.6039 78.7024 93.3329V87.3535C78.0332 86.1283 77.0101 85.5145 75.6309 85.5145C74.538 85.5145 73.6883 85.9357 73.0793 86.7758C72.4679 87.6183 72.1646 88.8652 72.1646 90.5214Z" fill="#1B2033"/>
<path d="M88.5091 91.3586L88.8461 93.6695L89.3372 91.5897L92.8034 79.3613H94.758L98.1376 91.5897L98.6191 93.708L98.9946 91.349L101.71 79.3613H104.03L99.7841 96.8854H97.6755L94.0648 84.1179L93.7952 82.7795L93.516 84.1179L89.7705 96.8854H87.6618L83.4253 79.3613H85.7361L88.5091 91.3586Z" fill="#1B2033"/>
<path d="M108.662 96.8857H106.438V83.8581H108.662V96.8857ZM106.255 80.4111C106.255 80.0452 106.363 79.7419 106.582 79.4964C106.806 79.246 107.133 79.1208 107.564 79.1208C108 79.1208 108.33 79.246 108.556 79.4964C108.78 79.7419 108.893 80.0452 108.893 80.4111C108.893 80.7722 108.78 81.0731 108.556 81.3162C108.33 81.5545 108 81.6724 107.564 81.6724C107.133 81.6724 106.806 81.5545 106.582 81.3162C106.363 81.0731 106.255 80.7722 106.255 80.4111Z" fill="#1B2033"/>
<path d="M119.813 93.429C119.813 92.8272 119.585 92.3602 119.13 92.0328C118.672 91.7007 117.881 91.4142 116.752 91.1759C115.627 90.9328 114.734 90.6439 114.075 90.3093C113.413 89.9699 112.922 89.5679 112.602 89.1057C112.286 88.6388 112.13 88.0827 112.13 87.44C112.13 86.3688 112.578 85.4637 113.478 84.7247C114.383 83.9881 115.538 83.6174 116.944 83.6174C118.42 83.6174 119.616 84.0002 120.536 84.7632C121.453 85.5287 121.912 86.5036 121.912 87.6903H119.679C119.679 87.0813 119.419 86.5542 118.899 86.1112C118.384 85.6683 117.734 85.4469 116.944 85.4469C116.135 85.4469 115.5 85.625 115.038 85.9764C114.58 86.3303 114.354 86.7925 114.354 87.363C114.354 87.9022 114.566 88.3114 114.99 88.5858C115.418 88.8554 116.188 89.1154 117.3 89.3657C118.41 89.6112 119.308 89.9049 119.996 90.2516C120.69 90.5982 121.202 91.017 121.537 91.5033C121.869 91.9847 122.038 92.5769 122.038 93.2749C122.038 94.4376 121.571 95.3716 120.642 96.0769C119.71 96.7774 118.504 97.1264 117.021 97.1264C115.974 97.1264 115.05 96.9434 114.248 96.5776C113.444 96.2069 112.816 95.6893 112.361 95.0274C111.911 94.3678 111.687 93.6505 111.687 92.8802H113.911C113.95 93.6264 114.248 94.2161 114.807 94.6518C115.365 95.0899 116.102 95.3066 117.021 95.3066C117.861 95.3066 118.535 95.1381 119.043 94.7963C119.556 94.4569 119.813 94.0019 119.813 93.429Z" fill="#1B2033"/>
<path d="M130.336 97.1264C128.569 97.1264 127.132 96.5487 126.022 95.3932C124.917 94.233 124.366 92.678 124.366 90.733V90.3286C124.366 89.0335 124.612 87.8781 125.108 86.8623C125.601 85.8489 126.292 85.0569 127.178 84.484C128.064 83.9063 129.026 83.6174 130.066 83.6174C131.754 83.6174 133.066 84.1759 134.004 85.2928C134.948 86.4097 135.42 88.0081 135.42 90.0879V91.0122H126.6C126.631 92.2976 127.004 93.3327 127.717 94.1223C128.434 94.9118 129.349 95.3066 130.461 95.3066C131.243 95.3066 131.908 95.1477 132.454 94.8251C132.998 94.505 133.477 94.0813 133.889 93.5542L135.246 94.6133C134.154 96.2887 132.517 97.1264 130.336 97.1264ZM130.066 85.4469C129.166 85.4469 128.413 85.7742 127.804 86.429C127.192 87.0837 126.814 88.0033 126.667 89.1828H133.196V89.0095C133.131 87.8805 132.825 87.0043 132.281 86.3808C131.734 85.7598 130.995 85.4469 130.066 85.4469Z" fill="#1B2033"/>
</svg>
